<?xml version="1.0" standalone="no"?><!DOCTYPE svg PUBLIC "-//W3C//DTD SVG 1.1//EN" "http://www.w3.org/Graphics/SVG/1.1/DTD/svg11.dtd"><svg t="1687398459064" class="icon" viewBox="0 0 1024 1024" version="1.1" xmlns="http://www.w3.org/2000/svg" p-id="19331" xmlns:xlink="http://www.w3.org/1999/xlink" width="200" height="200"><path d="M292.571429 710.607238l219.428571 109.714286 219.428571-109.714286v-207.969524l73.142858-34.791619v242.761143a73.142857 73.142857 0 0 1-40.423619 65.414095l-219.428572 109.714286a73.142857 73.142857 0 0 1-65.438476 0l-219.428572-109.714286A73.142857 73.142857 0 0 1 219.428571 710.607238v-240.688762l68.754286 32.670476-157.305905-74.752a73.142857 73.142857 0 0 1-2.511238-130.876952L475.91619 115.151238a73.142857 73.142857 0 0 1 67.803429 0l347.526095 181.808762A73.142857 73.142857 0 0 1 926.47619 385.511619L926.47619 633.904762h-73.142857v-189.269333l-312.124952 148.431238a73.142857 73.142857 0 0 1-62.829714 0L292.571429 504.685714 292.571429 710.607238z m217.234285-530.627048L162.255238 361.764571l347.501714 165.229715 347.526096-165.229715-347.526096-181.784381z" p-id="19332"></path></svg>